<?xml version="1.0" encoding="UTF-8" standalone="no"?>
<!-- Created with Inkscape (http://www.inkscape.org/) -->

<svg
   width="16"
   height="16"
   viewBox="0 0 4.2333333 4.2333333"
   version="1.1"
   id="svg5"
   inkscape:version="1.1.2 (0a00cf5339, 2022-02-04)"
   sodipodi:docname="corespsico.svg"
   xmlns:inkscape="http://www.inkscape.org/namespaces/inkscape"
   xmlns:sodipodi="http://sodipodi.sourceforge.net/DTD/sodipodi-0.dtd"
   xmlns="http://www.w3.org/2000/svg"
   xmlns:svg="http://www.w3.org/2000/svg">
  <sodipodi:namedview
     id="namedview7"
     pagecolor="#ffffff"
     bordercolor="#666666"
     borderopacity="1.0"
     inkscape:pageshadow="2"
     inkscape:pageopacity="0"
     inkscape:pagecheckerboard="false"
     inkscape:document-units="mm"
     showgrid="true"
     units="px"
     inkscape:zoom="32"
     inkscape:cx="7.796875"
     inkscape:cy="6.390625"
     inkscape:window-width="973"
     inkscape:window-height="701"
     inkscape:window-x="0"
     inkscape:window-y="0"
     inkscape:window-maximized="0"
     inkscape:current-layer="layer1"
     inkscape:snap-nodes="true"
     inkscape:object-paths="false"
     inkscape:object-nodes="false"
     inkscape:snap-smooth-nodes="false"
     inkscape:snap-intersection-paths="false"
     inkscape:snap-others="false"
     inkscape:snap-global="true"
     inkscape:snap-bbox="true">
    <inkscape:grid
       type="xygrid"
       id="grid9" />
  </sodipodi:namedview>
  <defs
     id="defs2" />
  <g
     inkscape:label="Camada 1"
     inkscape:groupmode="layer"
     id="layer1">
    <path
       style="fill:none;stroke:#ffffff;stroke-width:0.05291667;stroke-linecap:butt;stroke-linejoin:miter;stroke-miterlimit:4;stroke-dasharray:none;stroke-opacity:1"
       d="m 1.7157849,0.90939441 c 0,0 -0.6656598,0.52093879 -0.6656598,1.30234709 0,0.7814082 0.6656598,1.0418777 0.6656598,1.0418777 v 0"
       id="path3317" />
    <path
       style="fill:none;stroke:#ffffff;stroke-width:0.05291667;stroke-linecap:butt;stroke-linejoin:miter;stroke-miterlimit:4;stroke-dasharray:none;stroke-opacity:1"
       d="m 1.0532325,2.1733515 c 0.00328,0.1643672 -8.31e-4,0.1860058 0.09967,0.3265017"
       id="path3507"
       inkscape:transform-center-x="0.03637634"
       inkscape:transform-center-y="-0.026600853" />
    <path
       style="fill:none;stroke:#ffffff;stroke-width:0.05291667;stroke-linecap:butt;stroke-linejoin:miter;stroke-opacity:1;stroke-miterlimit:4;stroke-dasharray:none"
       d="M 1.388979,2.5002405 C 1.465595,2.4547147 1.4941539,2.3920496 1.5399357,2.3233769"
       id="path3511" />
    <path
       style="fill:none;stroke:#ffffff;stroke-width:0.05291667;stroke-linecap:butt;stroke-linejoin:miter;stroke-opacity:1;stroke-miterlimit:4;stroke-dasharray:none"
       d="m 1.6082445,2.5565537 c 0.071362,0.1806651 -0.061519,-0.1641903 0.058479,0.2174541 0.081933,0.2605815 0.028265,0.011279 0.055294,0.145012"
       id="path3513" />
    <path
       style="fill:none;stroke:#ffffff;stroke-width:0.05291667;stroke-linecap:butt;stroke-linejoin:miter;stroke-miterlimit:4;stroke-dasharray:none;stroke-opacity:1"
       d="m 1.5945452,1.9001452 c 0.00823,-0.01368 0.020228,-0.025712 0.024704,-0.041038 0.016714,-0.057241 0.023366,-0.1724913 0.027029,-0.2276014 0.00672,-0.101198 0.019766,-0.2175047 0.010358,-0.3209977 -0.00881,-0.096896 -0.00827,-0.016923 -0.00827,-0.049609"
       id="path3515" />
    <path
       style="fill:none;stroke:#ffffff;stroke-width:0.05291667;stroke-linecap:butt;stroke-linejoin:miter;stroke-miterlimit:4;stroke-dasharray:none;stroke-opacity:1"
       d="m 1.1036208,1.8443763 c 0.00328,0.1643672 -8.31e-4,0.1860058 0.09967,0.3265017"
       id="path3672"
       inkscape:transform-center-x="0.03637634"
       inkscape:transform-center-y="-0.026600853" />
    <path
       style="fill:none;stroke:#ffffff;stroke-width:0.05291667;stroke-linecap:butt;stroke-linejoin:miter;stroke-miterlimit:4;stroke-dasharray:none;stroke-opacity:1"
       d="m 1.2192792,1.5325661 c 0.071849,0.099064 0.085504,0.1107685 0.05667,0.2242007"
       id="path3674"
       inkscape:transform-center-x="-0.028541097"
       inkscape:transform-center-y="-0.026582741" />
    <path
       style="fill:none;stroke:#ffffff;stroke-width:0.05291667;stroke-linecap:butt;stroke-linejoin:miter;stroke-miterlimit:4;stroke-dasharray:none;stroke-opacity:1"
       d="m 1.3708299,1.2594877 c 0.072791,0.080318 0.086626,0.089808 0.057413,0.1817756"
       id="path3676"
       inkscape:transform-center-x="-0.028915524"
       inkscape:transform-center-y="-0.021552564" />
    <path
       style="fill:none;stroke:#ffffff;stroke-width:0.0536663;stroke-linecap:butt;stroke-linejoin:miter;stroke-miterlimit:4;stroke-dasharray:none;stroke-opacity:1"
       d="m 2.1605305,1.7860864 c 0,0 0.2075246,0.1039756 3.21e-4,0.2355379 -0.2078551,0.1319764 -0.1442553,0.2752344 -0.1442553,0.2752344 0,0 -0.1365486,0.086395 -0.173156,-0.077899 C 1.7860656,1.9614629 1.8041252,1.7029338 2.1605305,1.7860864 Z"
       id="path4010"
       sodipodi:nodetypes="cscsc" />
    <ellipse
       style="fill:none;stroke:#ffffff;stroke-width:0.0358825;stroke-linecap:round;stroke-linejoin:round;stroke-miterlimit:4;stroke-dasharray:none;stroke-opacity:1;paint-order:markers fill stroke"
       id="path5667"
       cx="-2.7113028"
       cy="-0.83377337"
       rx="0.030656215"
       ry="0.044200853"
       transform="matrix(-0.84485388,-0.53499712,0.44067191,-0.89766824,0,0)" />
    <ellipse
       style="fill:none;stroke:#ffffff;stroke-width:0.0358825;stroke-linecap:round;stroke-linejoin:round;stroke-miterlimit:4;stroke-dasharray:none;stroke-opacity:1;paint-order:markers fill stroke"
       id="ellipse6356"
       cx="-2.6384983"
       cy="-0.70457751"
       rx="0.030656215"
       ry="0.044200853"
       transform="matrix(-0.84485388,-0.53499712,0.44067191,-0.89766824,0,0)" />
    <ellipse
       style="fill:none;stroke:#ffffff;stroke-width:0.0358825;stroke-linecap:round;stroke-linejoin:round;stroke-miterlimit:4;stroke-dasharray:none;stroke-opacity:1;paint-order:markers fill stroke"
       id="ellipse6358"
       cx="-2.6503196"
       cy="-0.54723376"
       rx="0.030656215"
       ry="0.044200853"
       transform="matrix(-0.84485388,-0.53499712,0.44067191,-0.89766824,0,0)" />
    <ellipse
       style="fill:none;stroke:#ffffff;stroke-width:0.0358825;stroke-linecap:round;stroke-linejoin:round;stroke-miterlimit:4;stroke-dasharray:none;stroke-opacity:1;paint-order:markers fill stroke"
       id="ellipse6462"
       cx="-2.7373414"
       cy="-0.46343321"
       rx="0.030656215"
       ry="0.044200853"
       transform="matrix(-0.84485388,-0.53499712,0.44067191,-0.89766824,0,0)" />
    <path
       style="fill:none;stroke:#ffffff;stroke-width:0.0357775;stroke-linecap:round;stroke-linejoin:round;stroke-miterlimit:4;stroke-dasharray:none;stroke-opacity:1"
       d="M 2.2365231,2.5763973 2.117467,2.3001645 2.1741987,2.2686235 2.2932548,2.5448566 Z"
       id="path6499" />
    <path
       style="fill:none;stroke:#ffffff;stroke-width:0.0357775;stroke-linecap:round;stroke-linejoin:round;stroke-miterlimit:4;stroke-dasharray:none;stroke-opacity:1"
       d="m 2.1287517,2.292033 c 0,0 -0.028033,0.012498 -0.036495,-0.012964 -0.00847,-0.02546 -0.00582,-0.1143492 -0.00582,-0.1143492 0,0 0.081454,0.051387 0.089916,0.07685 0.00847,0.02546 -0.047606,0.050462 -0.047605,0.050462 z"
       id="path6503" />
    <path
       style="fill:none;stroke:#ffffff;stroke-width:0.05291667;stroke-linecap:butt;stroke-linejoin:miter;stroke-miterlimit:4;stroke-dasharray:none;stroke-opacity:1"
       d="m 1.7157849,0.90939441 c 0,0 -0.6656598,0.52093879 -0.6656598,1.30234709 0,0.7814082 0.6656598,1.0418777 0.6656598,1.0418777 v 0"
       id="path7652" />
    <path
       style="fill:none;stroke:#ffffff;stroke-width:0.05291667;stroke-linecap:butt;stroke-linejoin:miter;stroke-miterlimit:4;stroke-dasharray:none;stroke-opacity:1"
       d="m 1.0532325,2.1733515 c 0.00328,0.1643672 -8.31e-4,0.1860058 0.09967,0.3265017"
       id="path7654"
       inkscape:transform-center-x="0.03637634"
       inkscape:transform-center-y="-0.026600853" />
    <path
       style="fill:none;stroke:#ffffff;stroke-width:0.0372589;stroke-linecap:butt;stroke-linejoin:miter;stroke-miterlimit:4;stroke-dasharray:none;stroke-opacity:1"
       d="m 1.3151058,2.0219177 c 0.00969,-0.00933 0.01875,-0.025916 0.029066,-0.027985 0.044154,-0.00886 0.1705016,0.071714 0.1858801,0.078637 0.025174,0.011329 0.013595,-0.014386 0.022515,0.00852"
       id="path7656" />
    <path
       style="fill:none;stroke:#ffffff;stroke-width:0.05291667;stroke-linecap:butt;stroke-linejoin:miter;stroke-opacity:1;stroke-miterlimit:4;stroke-dasharray:none"
       d="M 1.388979,2.5002405 C 1.465595,2.4547147 1.4941539,2.3920496 1.5399357,2.3233769"
       id="path7658" />
    <path
       style="fill:none;stroke:#ffffff;stroke-width:0.05291667;stroke-linecap:butt;stroke-linejoin:miter;stroke-opacity:1;stroke-miterlimit:4;stroke-dasharray:none"
       d="m 1.6082445,2.5565537 c 0.071362,0.1806651 -0.061519,-0.1641903 0.058479,0.2174541 0.081933,0.2605815 0.028265,0.011279 0.055294,0.145012"
       id="path7660" />
    <path
       style="fill:none;stroke:#ffffff;stroke-width:0.05291667;stroke-linecap:butt;stroke-linejoin:miter;stroke-miterlimit:4;stroke-dasharray:none;stroke-opacity:1"
       d="m 1.5945452,1.9001452 c 0.00823,-0.01368 0.020228,-0.025712 0.024704,-0.041038 0.016714,-0.057241 0.023366,-0.1724913 0.027029,-0.2276014 0.00672,-0.101198 0.019766,-0.2175047 0.010358,-0.3209977 -0.00881,-0.096896 -0.00827,-0.016923 -0.00827,-0.049609"
       id="path7662" />
    <path
       style="fill:none;stroke:#ffffff;stroke-width:0.05291667;stroke-linecap:butt;stroke-linejoin:miter;stroke-miterlimit:4;stroke-dasharray:none;stroke-opacity:1"
       d="m 1.1036208,1.8443763 c 0.00328,0.1643672 -8.31e-4,0.1860058 0.09967,0.3265017"
       id="path7664"
       inkscape:transform-center-x="0.03637634"
       inkscape:transform-center-y="-0.026600853" />
    <path
       style="fill:none;stroke:#ffffff;stroke-width:0.05291667;stroke-linecap:butt;stroke-linejoin:miter;stroke-miterlimit:4;stroke-dasharray:none;stroke-opacity:1"
       d="m 1.2192792,1.5325661 c 0.071849,0.099064 0.085504,0.1107685 0.05667,0.2242007"
       id="path7666"
       inkscape:transform-center-x="-0.028541097"
       inkscape:transform-center-y="-0.026582741" />
    <path
       style="fill:none;stroke:#ffffff;stroke-width:0.05291667;stroke-linecap:butt;stroke-linejoin:miter;stroke-miterlimit:4;stroke-dasharray:none;stroke-opacity:1"
       d="m 1.3708299,1.2594877 c 0.072791,0.080318 0.086626,0.089808 0.057413,0.1817756"
       id="path7668"
       inkscape:transform-center-x="-0.028915524"
       inkscape:transform-center-y="-0.021552564" />
    <path
       style="fill:none;stroke:#ffffff;stroke-width:0.0529167;stroke-linecap:butt;stroke-linejoin:miter;stroke-miterlimit:4;stroke-dasharray:none;stroke-opacity:1"
       d="m 2.2802801,0.90852741 c 0,0 0.6656598,0.52093879 0.6656598,1.30234709 0,0.7814082 -0.6656598,1.0418777 -0.6656598,1.0418777 v 0"
       id="path7670" />
    <path
       style="fill:none;stroke:#ffffff;stroke-width:0.0529167;stroke-linecap:butt;stroke-linejoin:miter;stroke-miterlimit:4;stroke-dasharray:none;stroke-opacity:1"
       d="m 2.9428325,2.1724845 c -0.00328,0.1643672 8.31e-4,0.1860058 -0.09967,0.3265017"
       id="path7672"
       inkscape:transform-center-x="-0.036376328"
       inkscape:transform-center-y="-0.026600853" />
    <path
       style="fill:none;stroke:#ffffff;stroke-width:0.0529167;stroke-linecap:butt;stroke-linejoin:miter;stroke-miterlimit:4;stroke-dasharray:none;stroke-opacity:1"
       d="M 2.607086,2.4993735 C 2.53047,2.4538477 2.5019111,2.3911826 2.4561293,2.3225099"
       id="path7674" />
    <path
       style="fill:none;stroke:#ffffff;stroke-width:0.0529167;stroke-linecap:butt;stroke-linejoin:miter;stroke-miterlimit:4;stroke-dasharray:none;stroke-opacity:1"
       d="m 2.3878205,2.5556867 c -0.071362,0.1806651 0.061519,-0.1641903 -0.058479,0.2174541 -0.081933,0.2605815 -0.028265,0.011279 -0.055294,0.145012"
       id="path7676" />
    <path
       style="fill:none;stroke:#ffffff;stroke-width:0.0529167;stroke-linecap:butt;stroke-linejoin:miter;stroke-miterlimit:4;stroke-dasharray:none;stroke-opacity:1"
       d="m 2.4015198,1.8992782 c -0.00823,-0.01368 -0.020228,-0.025712 -0.024704,-0.041038 -0.016714,-0.057241 -0.023366,-0.1724913 -0.027029,-0.2276014 -0.00672,-0.101198 -0.019766,-0.2175047 -0.010358,-0.3209977 0.00881,-0.096896 0.00827,-0.016923 0.00827,-0.049609"
       id="path7678" />
    <path
       style="fill:none;stroke:#ffffff;stroke-width:0.0529167;stroke-linecap:butt;stroke-linejoin:miter;stroke-miterlimit:4;stroke-dasharray:none;stroke-opacity:1"
       d="m 2.8924442,1.8435093 c -0.00328,0.1643672 8.31e-4,0.1860058 -0.09967,0.3265017"
       id="path7680"
       inkscape:transform-center-x="-0.036376328"
       inkscape:transform-center-y="-0.026600853" />
    <path
       style="fill:none;stroke:#ffffff;stroke-width:0.0529167;stroke-linecap:butt;stroke-linejoin:miter;stroke-miterlimit:4;stroke-dasharray:none;stroke-opacity:1"
       d="m 2.7767858,1.5316991 c -0.071849,0.099064 -0.085504,0.1107685 -0.05667,0.2242007"
       id="path7682"
       inkscape:transform-center-x="0.028541109"
       inkscape:transform-center-y="-0.026582741" />
    <path
       style="fill:none;stroke:#ffffff;stroke-width:0.0529167;stroke-linecap:butt;stroke-linejoin:miter;stroke-miterlimit:4;stroke-dasharray:none;stroke-opacity:1"
       d="m 2.6252351,1.2586207 c -0.072791,0.080318 -0.086626,0.089808 -0.057413,0.1817756"
       id="path7684"
       inkscape:transform-center-x="0.028915536"
       inkscape:transform-center-y="-0.021552564" />
    <path
       style="fill:none;stroke:#ffffff;stroke-width:0.0529167;stroke-linecap:butt;stroke-linejoin:miter;stroke-miterlimit:4;stroke-dasharray:none;stroke-opacity:1"
       d="m 2.2802801,0.90852741 c 0,0 0.6656598,0.52093879 0.6656598,1.30234709 0,0.7814082 -0.6656598,1.0418777 -0.6656598,1.0418777 v 0"
       id="path7686" />
    <path
       style="fill:none;stroke:#ffffff;stroke-width:0.0529167;stroke-linecap:butt;stroke-linejoin:miter;stroke-miterlimit:4;stroke-dasharray:none;stroke-opacity:1"
       d="m 2.9428325,2.1724845 c -0.00328,0.1643672 8.31e-4,0.1860058 -0.09967,0.3265017"
       id="path7688"
       inkscape:transform-center-x="-0.036376328"
       inkscape:transform-center-y="-0.026600853" />
    <path
       style="fill:none;stroke:#ffffff;stroke-width:0.0529167;stroke-linecap:butt;stroke-linejoin:miter;stroke-miterlimit:4;stroke-dasharray:none;stroke-opacity:1"
       d="M 2.607086,2.4993735 C 2.53047,2.4538477 2.5019111,2.3911826 2.4561293,2.3225099"
       id="path7690" />
    <path
       style="fill:none;stroke:#ffffff;stroke-width:0.0529167;stroke-linecap:butt;stroke-linejoin:miter;stroke-miterlimit:4;stroke-dasharray:none;stroke-opacity:1"
       d="m 2.3878205,2.5556867 c -0.071362,0.1806651 0.061519,-0.1641903 -0.058479,0.2174541 -0.081933,0.2605815 -0.028265,0.011279 -0.055294,0.145012"
       id="path7692" />
    <path
       style="fill:none;stroke:#ffffff;stroke-width:0.0529167;stroke-linecap:butt;stroke-linejoin:miter;stroke-miterlimit:4;stroke-dasharray:none;stroke-opacity:1"
       d="m 2.4015198,1.8992782 c -0.00823,-0.01368 -0.020228,-0.025712 -0.024704,-0.041038 -0.016714,-0.057241 -0.023366,-0.1724913 -0.027029,-0.2276014 -0.00672,-0.101198 -0.019766,-0.2175047 -0.010358,-0.3209977 0.00881,-0.096896 0.00827,-0.016923 0.00827,-0.049609"
       id="path7694" />
    <path
       style="fill:none;stroke:#ffffff;stroke-width:0.0529167;stroke-linecap:butt;stroke-linejoin:miter;stroke-miterlimit:4;stroke-dasharray:none;stroke-opacity:1"
       d="m 2.8924442,1.8435093 c -0.00328,0.1643672 8.31e-4,0.1860058 -0.09967,0.3265017"
       id="path7696"
       inkscape:transform-center-x="-0.036376328"
       inkscape:transform-center-y="-0.026600853" />
    <path
       style="fill:none;stroke:#ffffff;stroke-width:0.0529167;stroke-linecap:butt;stroke-linejoin:miter;stroke-miterlimit:4;stroke-dasharray:none;stroke-opacity:1"
       d="m 2.7767858,1.5316991 c -0.071849,0.099064 -0.085504,0.1107685 -0.05667,0.2242007"
       id="path7698"
       inkscape:transform-center-x="0.028541109"
       inkscape:transform-center-y="-0.026582741" />
    <path
       style="fill:none;stroke:#ffffff;stroke-width:0.0529167;stroke-linecap:butt;stroke-linejoin:miter;stroke-miterlimit:4;stroke-dasharray:none;stroke-opacity:1"
       d="m 2.6252351,1.2586207 c -0.072791,0.080318 -0.086626,0.089808 -0.057413,0.1817756"
       id="path7700"
       inkscape:transform-center-x="0.028915536"
       inkscape:transform-center-y="-0.021552564" />
    <path
       style="fill:none;stroke:#ffffff;stroke-width:0.0372589;stroke-linecap:butt;stroke-linejoin:miter;stroke-miterlimit:4;stroke-dasharray:none;stroke-opacity:1"
       d="m 2.5449528,2.0629584 c -0.00969,-0.00933 -0.01875,-0.025916 -0.029066,-0.027985 -0.044154,-0.00886 -0.1705016,0.071714 -0.1858801,0.078637 -0.025174,0.011329 -0.013595,-0.014386 -0.022515,0.00852"
       id="path7782" />
  </g>
</svg>
